# xmcd
#
# Track frame offsets:
#	150
#	15082
#	32610
#
# Disc length: 761 seconds
#
# Revision: 0
# Processed by: cddbd v1.4PL0 Copyright (c) Steve Scherf et al.
# Submitted via: audiograbber 1.80.04
#
DISCID=1002f703
DTITLE=Gomez - Whippin' Piccadilly
DYEAR=1998
DGENRE=Avantgarde
TTITLE0=Whippin' Piccadilly (Turbo Version)
TTITLE1=Pussyfootin
TTITLE2=Pick Up The Pieces
EXTD=
EXTT0=
EXTT1=
EXTT2=
PLAYORDER=
